<?xml version="1.0" encoding="utf-8"?>
<!-- Generator: Adobe Illustrator 16.0.0, SVG Export Plug-In . SVG Version: 6.00 Build 0)  -->
<!DOCTYPE svg PUBLIC "-//W3C//DTD SVG 1.1//EN" "http://www.w3.org/Graphics/SVG/1.1/DTD/svg11.dtd">
<svg version="1.1" id="Layer_1" xmlns="http://www.w3.org/2000/svg" xmlns:xlink="http://www.w3.org/1999/xlink" x="0px" y="0px"
	 width="512px" height="512px" viewBox="0 0 512 512" enable-background="new 0 0 512 512" xml:space="preserve">
<path fill="#FFFFFF" d="M427.379,67.308C380.938,24.472,320.162,0,256,0C114.842,0,0,114.842,0,256
	c0,27.162,4.224,53.879,12.553,79.411c1.169,3.61,4.523,5.897,8.115,5.897c0.87,0,1.766-0.146,2.645-0.428
	c4.48-1.468,6.929-6.281,5.47-10.76c-7.774-23.826-11.716-48.76-11.716-74.121C17.067,124.254,124.245,17.067,256,17.067
	c59.584,0,116.072,22.617,159.344,62.276L427.379,67.308z"/>
<path fill="#FFFFFF" d="M84.621,445.691C131.062,488.528,191.838,513,256,513c141.158,0,256-114.842,256-256
	c0-27.162-4.225-53.879-12.554-79.411c-1.169-3.61-4.522-5.897-8.114-5.897c-0.87,0-1.767,0.146-2.646,0.428
	c-4.479,1.468-6.929,6.281-5.47,10.76c7.774,23.826,11.716,48.76,11.716,74.121c0,131.746-107.178,238.934-238.933,238.934
	c-59.584-0.001-116.072-22.617-159.344-62.277L84.621,445.691z"/>
<path fill="#FFFFFF" d="M328.974,52.028c-50.317-18.516-105.917-17.979-156.227,2.847C62.062,100.69,9.288,228.014,55.104,338.697
	c8.816,21.299,20.798,40.877,35.616,58.192c2.09,2.452,5.46,3.157,8.277,1.991c0.684-0.282,1.337-0.688,1.937-1.194
	c3.036-2.604,3.394-7.174,0.796-10.212c-13.829-16.159-25.014-34.43-33.244-54.316c-42.761-103.304,6.49-222.138,109.8-264.901
	c46.72-19.339,98.355-19.939,145.157-2.886L328.974,52.028z"/>
<path fill="#FFFFFF" d="M183.024,459.972c50.318,18.517,105.917,17.979,156.227-2.847
	C449.935,411.31,502.71,283.986,456.895,173.303c-8.816-21.298-20.8-40.876-35.618-58.193c-2.089-2.452-5.46-3.156-8.276-1.991
	c-0.683,0.283-1.338,0.688-1.936,1.194c-3.036,2.605-3.394,7.174-0.797,10.213c13.829,16.159,25.012,34.43,33.243,54.316
	c42.761,103.303-6.488,222.137-109.799,264.9c-46.722,19.339-98.354,19.94-145.157,2.886L183.024,459.972z"/>
</svg>
