<?xml version="1.0" standalone="no"?>
<!DOCTYPE svg PUBLIC "-//W3C//DTD SVG 20010904//EN"
 "http://www.w3.org/TR/2001/REC-SVG-20010904/DTD/svg10.dtd">
<svg version="1.0" xmlns="http://www.w3.org/2000/svg"
 width="1280.000000pt" height="1166.000000pt" viewBox="0 0 1280.000000 1166.000000"
 preserveAspectRatio="xMidYMid meet">
<metadata>
Created by potrace 1.15, written by Peter Selinger 2001-2017
</metadata>
<g transform="translate(0.000000,1166.000000) scale(0.100000,-0.100000)"
fill="#ffffff" stroke="none">
<path d="M881 11603 c75 -285 231 -637 428 -966 174 -290 485 -735 553 -790
53 -42 108 -125 108 -162 0 -95 -123 -132 -515 -155 -177 -10 -341 -27 -356
-35 -7 -5 -504 452 -729 670 -134 130 -298 265 -321 265 -28 0 52 -97 263
-320 197 -209 369 -363 458 -412 135 -72 200 -140 200 -206 0 -98 -85 -158
-443 -313 -156 -67 -337 -159 -403 -203 l-32 -21 152 0 c145 0 153 -1 203 -27
56 -30 96 -75 115 -129 15 -43 76 -129 142 -197 76 -80 188 -165 406 -307 300
-196 420 -297 498 -422 34 -53 72 -149 72 -182 0 -30 -105 -127 -173 -161 -34
-16 -89 -37 -122 -45 -81 -21 -262 -36 -360 -30 -44 3 -188 12 -320 21 -358
24 -585 8 -638 -45 -44 -43 -22 -46 346 -46 367 0 412 -5 462 -51 42 -39 27
-102 -43 -176 -35 -37 -81 -37 -264 3 -249 55 -381 44 -462 -37 -33 -33 -96
-165 -96 -200 0 -34 34 -32 167 10 147 46 222 60 296 54 69 -6 129 -32 167
-73 14 -15 50 -40 80 -55 72 -37 135 -83 155 -114 51 -77 -59 -116 -375 -136
-298 -18 -340 -21 -346 -31 -3 -5 12 -17 33 -26 31 -15 64 -17 184 -15 192 4
249 -17 249 -90 -1 -65 -89 -178 -208 -266 -74 -55 -197 -123 -253 -141 -37
-12 -159 -128 -159 -151 0 -27 41 -5 375 195 373 224 339 209 460 201 157 -10
235 -60 235 -150 0 -86 -99 -252 -267 -450 -47 -55 -51 -63 -57 -130 -8 -86
-30 -133 -75 -163 -70 -47 -167 -26 -411 92 -189 91 -229 106 -231 84 -5 -60
17 -95 79 -125 288 -140 413 -636 210 -831 -18 -18 -85 -60 -148 -94 -126 -67
-161 -89 -143 -89 7 0 67 14 135 31 142 35 336 50 386 30 17 -7 61 -53 103
-104 40 -51 150 -182 245 -292 322 -376 447 -545 557 -755 71 -136 126 -293
111 -317 -20 -34 -187 -151 -293 -206 -149 -77 -232 -110 -591 -232 -173 -59
-359 -127 -413 -150 -107 -48 -257 -137 -239 -143 16 -5 296 70 452 121 322
107 763 296 870 373 26 19 74 46 106 61 52 25 71 28 159 28 89 0 106 -3 150
-27 64 -33 143 -104 192 -171 20 -29 88 -101 149 -162 90 -88 115 -119 125
-154 27 -92 -35 -130 -301 -186 -320 -66 -432 -103 -527 -173 -64 -47 -77 -73
-63 -117 7 -20 26 -53 43 -72 47 -53 97 -73 192 -73 86 0 166 18 457 103 269
79 408 84 525 17 70 -40 117 -101 167 -217 101 -232 179 -302 545 -488 253
-128 337 -193 400 -310 l22 -40 -8 35 c-16 69 -9 162 15 212 82 168 331 257
570 203 69 -16 178 -70 195 -96 8 -12 -30 -64 -169 -231 -207 -248 -294 -368
-359 -490 -26 -49 -53 -88 -60 -88 -22 0 -55 73 -96 215 -31 108 -95 276 -74
195 4 -14 10 -77 15 -140 8 -112 35 -232 66 -291 20 -39 58 -63 88 -55 41 10
118 107 236 297 194 311 258 385 385 443 78 36 125 83 125 125 0 37 -27 87
-95 175 -40 52 -57 85 -58 107 -2 31 3 36 83 86 143 89 455 265 640 361 308
159 768 360 775 339 24 -70 225 -591 264 -685 248 -600 457 -994 730 -1379 85
-120 113 -149 131 -138 25 15 -7 123 -49 170 -28 30 -380 615 -466 773 -101
185 -182 368 -241 538 -26 76 -61 158 -76 182 -61 89 -83 151 -83 234 0 69 3
80 30 119 59 84 197 137 383 146 56 3 104 9 106 12 6 9 -13 926 -20 994 -14
137 70 233 278 316 l76 31 47 -20 c107 -46 236 -131 507 -336 245 -185 322
-235 503 -324 88 -43 185 -99 216 -123 70 -56 104 -120 94 -175 -12 -67 -86
-145 -201 -214 -29 -18 -54 -37 -54 -42 0 -5 19 -27 42 -49 55 -53 180 -110
304 -141 217 -54 369 -66 815 -66 l356 0 99 -40 c524 -215 1193 -406 1743
-500 68 -11 149 -27 180 -36 60 -15 251 -47 391 -64 115 -15 397 -25 443 -16
76 14 30 50 -138 109 -812 283 -1682 784 -2332 1345 l-133 114 0 101 c0 239
67 449 298 933 226 474 284 645 303 894 14 196 36 265 101 326 49 47 92 65
168 71 122 10 268 -28 605 -157 265 -102 364 -135 455 -150 36 -6 216 -61 399
-121 349 -115 454 -138 467 -106 3 9 -4 30 -16 47 -20 28 -66 45 -648 236
-1654 543 -1870 616 -2385 810 -136 51 -262 104 -280 117 -52 40 -84 53 -316
132 -293 99 -391 150 -391 203 0 27 57 77 121 105 106 47 184 61 324 60 161
-1 247 -18 579 -112 313 -90 390 -101 552 -78 405 56 666 68 1629 76 908 7
889 9 -275 31 -469 9 -589 17 -1165 74 -449 45 -615 57 -945 66 -339 9 -420
19 -447 56 -20 27 -17 34 34 81 88 83 418 226 763 332 91 28 228 76 304 107
244 99 307 106 454 49 211 -81 386 -116 484 -96 124 26 139 107 53 277 l-47
94 48 43 c170 150 311 226 789 427 302 127 491 217 610 290 83 51 215 149 215
159 0 10 -222 28 -495 41 -507 24 -774 54 -976 111 -40 12 -109 25 -152 29
-170 16 -178 80 -38 313 54 90 156 315 147 324 -3 3 -44 -55 -92 -128 -185
-285 -293 -446 -337 -502 l-45 -58 -35 63 c-143 253 -367 378 -679 378 -122 0
-130 -2 -196 -64 -55 -51 -89 -107 -213 -355 -130 -258 -182 -334 -279 -406
-35 -25 -92 -54 -137 -69 -89 -30 -203 -95 -232 -132 -33 -42 -28 -86 14 -123
46 -40 94 -64 283 -141 187 -77 270 -125 294 -171 33 -63 24 -70 -170 -142
-518 -191 -1051 -333 -1577 -421 -168 -28 -405 -60 -409 -54 -1 1 -63 220
-136 485 l-133 483 105 217 c130 266 209 439 399 873 l146 335 52 3 c72 4 184
-19 431 -88 117 -33 219 -60 227 -60 29 0 9 18 -75 68 -163 96 -325 137 -777
197 -406 54 -567 90 -731 165 -52 23 -64 33 -60 47 3 10 18 77 35 148 16 72
59 241 96 375 207 759 235 908 241 1280 2 135 2 241 -1 235 -2 -5 -18 -97 -35
-203 -79 -498 -147 -833 -221 -1094 -23 -78 -52 -187 -65 -240 -46 -189 -128
-366 -255 -553 -95 -141 -220 -282 -399 -451 -36 -34 -84 -86 -106 -116 -49
-65 -99 -106 -140 -114 -37 -7 -78 30 -94 85 -23 76 -31 232 -19 346 23 228
23 225 4 225 -9 0 -47 -25 -83 -55 -37 -31 -95 -70 -129 -87 -55 -27 -70 -30
-131 -26 -60 3 -74 8 -120 41 -60 45 -107 105 -155 202 -49 98 -77 193 -142
485 -63 286 -99 401 -157 510 -22 41 -52 115 -68 165 -56 174 -301 631 -417
778 -29 37 -35 34 -19 -10 33 -95 79 -179 124 -227 47 -52 72 -107 72 -159 0
-45 -38 -130 -80 -178 -82 -96 -257 -188 -362 -191 -89 -2 -301 108 -661 344
-493 323 -663 408 -918 464 -112 24 -357 30 -448 10 -187 -40 -310 -143 -373
-312 -31 -85 -32 -303 -1 -419 32 -121 88 -244 156 -346 l62 -92 204 -114
c399 -224 542 -343 640 -533 56 -111 66 -156 66 -312 0 -75 -3 -140 -7 -143
-4 -4 -58 31 -120 77 -761 567 -1423 1336 -1937 2251 -18 31 -34 57 -36 57 -2
0 1 -17 6 -37z m1758 -148 c8 -8 -4 -15 -62 -35 -65 -23 -145 -26 -172 -7 -44
33 27 58 144 52 47 -3 87 -8 90 -10z m-426 -31 c15 -15 -22 -70 -92 -136 -58
-55 -92 -79 -137 -96 -52 -19 -94 -22 -94 -6 0 3 10 24 21 47 29 56 116 139
180 171 49 24 108 34 122 20z m684 -26 c37 -26 40 -36 18 -64 -14 -18 -16 -18
-45 14 -30 33 -40 72 -18 72 6 0 27 -10 45 -22z m-225 -102 c226 -43 403 -133
851 -433 293 -196 383 -250 549 -333 216 -108 260 -136 278 -179 32 -79 -61
-121 -430 -196 -248 -51 -324 -72 -414 -112 -110 -49 -167 -63 -267 -63 -94 0
-184 19 -326 71 -195 70 -351 119 -408 128 -207 36 -437 253 -523 493 -20 56
-27 98 -30 178 -5 128 11 194 68 272 61 86 131 131 257 167 85 24 286 28 395
7z m1042 -419 c148 -77 406 -232 491 -295 l50 -37 -33 -3 c-57 -6 -164 55
-522 294 -200 134 -195 149 14 41z m-105 -914 c52 -38 63 -77 58 -198 -4 -87
-12 -131 -37 -210 -18 -55 -35 -133 -39 -172 -11 -107 -47 -137 -116 -95 -113
70 -279 331 -300 472 -7 52 7 98 32 106 10 3 57 25 104 49 145 75 240 90 298
48z m-1653 -534 c95 -13 205 -52 261 -92 50 -35 83 -97 83 -154 0 -60 -53
-155 -134 -241 -57 -59 -78 -91 -108 -161 -37 -88 -41 -114 -10 -70 9 13 48
69 87 123 100 142 115 141 69 -5 -48 -151 -145 -224 -267 -197 -79 16 -187 98
-382 288 -234 229 -317 293 -415 320 l-25 7 40 38 c65 62 179 107 360 140 87
16 338 19 441 4z m8372 -664 c54 -15 63 -21 60 -39 -3 -19 -8 -21 -78 -19 -86
3 -200 19 -248 34 -37 12 -38 30 -1 41 40 12 200 2 267 -17z m-244 -96 c44
-11 108 -27 141 -35 98 -25 184 -73 263 -148 168 -159 251 -340 399 -871 66
-236 107 -366 154 -482 9 -21 10 -36 4 -42 -27 -25 -1079 321 -1600 526 -210
82 -255 109 -255 152 0 40 43 80 216 203 82 58 168 126 192 152 46 50 81 116
82 154 0 53 127 317 172 359 61 58 107 64 232 32z m-5475 -125 c-43 -159 -110
-326 -297 -749 -194 -440 -264 -626 -282 -751 -23 -172 -98 -320 -217 -435
-134 -128 -268 -201 -653 -354 -135 -53 -292 -122 -350 -153 -235 -125 -403
-198 -790 -345 -375 -142 -564 -235 -787 -383 -151 -101 -281 -167 -423 -214
-98 -33 -128 -37 -136 -16 -8 21 13 54 76 121 37 39 84 107 130 190 182 325
339 569 502 780 99 127 292 328 397 415 52 42 82 79 155 196 202 320 333 491
511 670 177 178 310 271 493 346 51 21 123 45 160 53 47 11 88 30 137 64 225
155 494 286 1005 494 356 144 384 156 388 152 1 -1 -7 -38 -19 -81z m255 46
c71 -27 157 -139 210 -275 35 -88 192 -393 326 -635 212 -381 335 -641 415
-876 37 -107 38 -113 46 -314 9 -224 15 -306 59 -730 17 -157 34 -330 40 -385
5 -55 17 -246 25 -425 16 -352 19 -399 41 -685 25 -336 64 -684 104 -930 34
-214 36 -264 10 -316 -59 -116 -108 -119 -179 -9 -21 32 -82 158 -136 280
-101 228 -156 327 -198 355 -15 9 -35 43 -52 88 -49 126 -140 295 -295 547
-269 436 -345 617 -375 900 l-6 55 -75 39 c-184 95 -378 350 -469 616 -24 70
-25 80 -14 146 22 139 -11 239 -160 483 -100 165 -126 241 -118 347 5 61 11
84 41 133 90 147 167 338 320 788 64 188 130 377 147 420 17 43 40 114 50 157
36 146 104 236 179 236 21 0 50 -4 64 -10z m1214 -415 c45 -26 317 -278 327
-303 12 -32 -13 -35 -81 -13 -121 40 -275 146 -344 237 -28 36 -39 82 -23 97
14 15 81 5 121 -18z m367 -409 c66 -17 145 -52 145 -64 0 -17 -27 -21 -63 -11
-19 5 -77 11 -128 13 -104 5 -199 29 -199 51 0 7 6 16 13 18 26 11 184 6 232
-7z m-5750 -736 c128 -44 317 -163 364 -229 25 -34 26 -54 6 -71 -21 -18 -54
-6 -127 44 -34 24 -112 76 -173 114 -113 72 -195 136 -195 153 0 15 64 10 125
-11z m3359 -480 c36 -13 105 -78 138 -129 44 -70 36 -129 -21 -149 -69 -24
-139 26 -127 91 5 27 0 41 -34 86 -25 33 -40 64 -40 82 0 25 4 29 29 29 16 0
41 -4 55 -10z m-246 -303 c121 -43 225 -112 337 -222 167 -164 267 -338 344
-598 69 -233 150 -373 438 -765 234 -318 326 -485 392 -716 59 -205 99 -286
309 -641 151 -253 209 -362 256 -476 41 -100 82 -250 91 -335 l7 -59 -134 -54
c-254 -103 -606 -282 -794 -402 -33 -22 -106 -57 -161 -78 -137 -54 -243 -108
-488 -251 -331 -193 -505 -276 -659 -316 -34 -8 -85 -32 -114 -52 -50 -34 -59
-36 -145 -40 -253 -11 -490 151 -490 334 l0 54 -55 31 c-139 78 -239 208 -412
534 -72 137 -127 219 -191 290 -30 33 -71 85 -91 116 -38 56 -141 159 -322
324 -150 135 -218 238 -245 365 -10 48 -22 67 -90 143 -98 109 -226 272 -349
447 -258 366 -322 454 -406 560 -50 63 -124 151 -163 195 -68 74 -73 83 -73
125 1 94 63 184 183 264 106 70 224 122 477 207 448 153 519 185 643 295 135
120 280 189 673 320 362 120 498 181 629 279 96 73 188 121 270 142 82 21 245
11 333 -20z m-850 -147 c18 -11 35 -27 39 -35 7 -21 -25 -55 -52 -55 -39 0
-72 59 -53 94 12 21 26 20 66 -4z m7404 -800 c37 -11 70 -24 73 -29 5 -9 -127
-219 -263 -416 -341 -498 -741 -980 -1180 -1424 -243 -245 -293 -282 -377
-283 -25 -1 -64 10 -101 26 -32 16 -181 83 -330 151 -453 206 -681 324 -892
463 -106 69 -293 212 -320 245 -11 13 32 38 285 169 564 293 894 507 1130 733
153 147 224 173 581 215 96 11 177 22 182 25 4 2 65 12 136 20 71 9 219 34
329 55 180 35 337 62 435 74 79 10 246 -3 312 -24z m-1388 -35 c51 -21 52 -33
4 -46 -119 -32 -370 -51 -383 -29 -11 18 14 38 72 60 109 41 231 47 307 15z
m-644 -230 c0 -32 -81 -119 -194 -209 -94 -75 -386 -265 -571 -371 -188 -109
-471 -249 -582 -289 -109 -39 -102 -29 62 82 100 68 166 105 570 322 324 174
571 336 669 439 27 29 46 39 46 26z m-2176 -2336 c14 -17 26 -36 26 -43 0 -20
-44 -81 -61 -84 -32 -6 -52 94 -29 139 15 27 34 24 64 -12z m2945 -44 c63 -32
156 -150 234 -298 74 -139 86 -167 69 -167 -16 0 -102 98 -205 232 -106 138
-154 219 -142 238 8 13 11 13 44 -5z m443 -30 c115 -34 247 -118 307 -194 47
-59 80 -145 81 -207 0 -56 9 -64 76 -64 17 0 83 -9 145 -20 317 -55 588 -145
1196 -396 179 -74 334 -134 344 -134 20 0 99 -70 99 -88 0 -19 -43 -14 -188
22 -75 19 -261 62 -412 96 -835 186 -1193 309 -1532 526 -219 141 -358 295
-358 397 0 79 102 105 242 62z m-500 -103 c106 -52 181 -152 223 -295 15 -54
15 -60 0 -83 -46 -70 -163 -62 -612 41 -132 30 -252 55 -267 55 l-26 0 21 43
c33 63 143 166 225 210 98 50 170 67 280 64 79 -2 99 -7 156 -35z m1125 -224
c13 -12 23 -25 23 -29 0 -13 -73 -59 -93 -59 -34 0 -35 61 -1 94 21 22 43 20
71 -6z m-8039 -197 c26 -16 -162 -29 -215 -15 -13 4 -20 10 -17 15 7 11 215
12 232 0z m-568 -107 c0 -4 -16 -32 -35 -64 -66 -108 -125 -145 -125 -76 0 40
34 92 79 123 31 21 81 31 81 17z m508 -10 c37 -7 25 -20 -41 -42 -131 -43
-377 -78 -377 -54 0 14 72 49 148 72 114 35 186 41 270 24z m2320 -668 c37
-19 81 -49 97 -66 30 -32 30 -32 5 -25 -46 14 -203 125 -176 125 4 0 37 -15
74 -34z"/>
<path d="M2622 6243 c-18 -26 -19 -31 -6 -56 19 -34 42 -35 55 0 25 66 -12
108 -49 56z"/>
<path d="M4982 7982 c-45 -80 -22 -213 67 -390 45 -88 127 -228 227 -387 39
-60 87 -139 107 -175 39 -70 99 -136 115 -126 23 14 42 77 42 139 0 138 -88
349 -249 595 -75 114 -193 274 -258 350 l-28 34 -23 -40z"/>
<path d="M4824 7525 c-36 -172 76 -507 289 -863 123 -206 318 -435 416 -490
l41 -23 0 39 c0 21 -7 81 -16 133 -60 357 -314 815 -641 1159 l-81 85 -8 -40z"/>
<path d="M4692 6828 c-37 -48 -47 -85 -46 -183 1 -238 122 -641 295 -986 158
-316 416 -699 563 -837 65 -60 68 -62 94 -48 148 78 163 297 42 628 -64 176
-272 574 -385 738 -28 41 -96 149 -150 240 -139 232 -210 336 -276 403 -48 47
-63 57 -92 57 -19 0 -39 -6 -45 -12z"/>
<path d="M3213 5633 c-30 -20 -32 -73 -4 -73 18 0 51 52 51 79 0 15 -21 13
-47 -6z"/>
<path d="M3506 5599 c-12 -30 -14 -45 -6 -54 16 -19 67 -38 85 -31 21 8 19 55
-5 94 -28 45 -54 42 -74 -9z"/>
<path d="M2570 5506 c0 -50 16 -73 61 -84 24 -6 46 -9 51 -6 19 12 5 44 -32
78 -48 43 -80 48 -80 12z"/>
<path d="M3940 5418 c-11 -18 -20 -35 -20 -38 0 -15 42 -70 54 -70 24 0 35 84
16 121 -15 27 -27 24 -50 -13z"/>
<path d="M3311 4666 c-7 -8 -15 -30 -18 -50 -5 -32 -3 -37 23 -46 15 -6 48
-10 73 -8 61 4 65 26 13 78 -41 42 -71 50 -91 26z"/>
<path d="M4371 4373 c-7 -15 -15 -51 -18 -79 -5 -45 -3 -53 18 -68 29 -20 73
-21 89 -1 27 33 -19 165 -61 173 -9 2 -21 -9 -28 -25z"/>
<path d="M1961 4036 c-6 -7 -16 -39 -23 -71 l-11 -58 31 -29 c40 -35 60 -36
72 -3 17 45 -19 175 -49 175 -5 0 -14 -6 -20 -14z"/>
<path d="M4347 3809 c-3 -12 -3 -43 0 -69 4 -37 11 -51 29 -61 37 -19 48 -1
34 52 -14 53 -37 99 -49 99 -5 0 -11 -10 -14 -21z"/>
<path d="M4811 3741 c-24 -24 -40 -76 -48 -157 l-6 -61 42 -7 c93 -15 144 43
120 138 -11 45 -56 106 -78 106 -6 0 -20 -9 -30 -19z"/>
<path d="M3035 3414 c-14 -15 -25 -30 -25 -34 0 -3 13 -19 30 -35 24 -23 32
-26 45 -15 28 23 15 110 -17 110 -5 0 -20 -12 -33 -26z"/>
<path d="M4436 2974 c-9 -35 3 -92 15 -73 11 18 12 99 0 99 -5 0 -12 -12 -15
-26z"/>
<path d="M5427 2970 c-22 -17 -67 -111 -67 -139 0 -10 69 -31 103 -31 30 0 67
42 67 77 0 36 -26 90 -48 102 -27 14 -25 14 -55 -9z"/>
<path d="M5120 2750 c-6 -11 -10 -58 -8 -108 l3 -87 33 -3 c27 -3 34 1 43 24
12 34 3 96 -22 146 -24 47 -35 54 -49 28z"/>
<path d="M5706 2487 c-17 -13 -17 -15 6 -42 29 -33 58 -29 58 8 0 42 -31 58
-64 34z"/>
<path d="M5102 2304 c-27 -18 -54 -70 -76 -142 l-15 -53 34 -15 c36 -15 82
-18 110 -8 23 9 45 57 45 98 0 46 -27 114 -51 126 -23 13 -21 13 -47 -6z"/>
<path d="M4774 2288 c-22 -25 -21 -68 1 -68 16 0 42 35 47 65 4 28 -24 30 -48
3z"/>
<path d="M4550 2058 c-25 -42 -25 -54 1 -61 30 -8 48 2 55 28 16 63 -23 86
-56 33z"/>
<path d="M4400 1845 c-20 -21 -22 -29 -12 -49 15 -33 51 -44 69 -20 16 21 16
34 3 68 -12 33 -30 33 -60 1z"/>
<path d="M3708 1709 c-32 -18 -41 -48 -23 -75 22 -34 62 -33 71 2 7 29 -5 76
-21 80 -5 2 -18 -1 -27 -7z"/>
<path d="M3443 1653 c-29 -6 -63 -49 -63 -80 0 -13 9 -46 21 -73 l21 -49 51
20 c95 38 148 91 127 129 -20 37 -102 65 -157 53z"/>
<path d="M8019 11327 c-70 -29 -100 -51 -165 -119 -112 -115 -198 -274 -370
-680 -64 -150 -138 -316 -166 -368 -49 -90 -51 -99 -51 -171 -1 -94 30 -166
99 -229 101 -93 241 -137 656 -205 293 -48 414 -78 516 -126 l62 -30 29 20
c40 29 71 97 71 155 0 107 -41 213 -191 497 -61 114 -119 230 -129 258 -12 31
-36 65 -61 88 -96 87 -117 183 -63 284 18 35 78 103 165 190 140 141 176 192
164 236 -9 36 -57 78 -113 99 -26 10 -59 26 -74 36 -122 84 -273 110 -379 65z
m182 -79 c56 -22 108 -62 96 -74 -9 -9 -131 53 -153 77 -22 25 -9 24 57 -3z
m89 -170 c98 -35 122 -55 105 -85 -11 -19 -110 -71 -308 -162 -120 -55 -186
-102 -209 -149 -8 -15 -36 -66 -62 -114 -26 -49 -44 -88 -39 -88 5 0 55 47
113 105 58 58 110 105 116 105 25 0 87 -86 138 -192 48 -102 78 -177 202 -513
20 -55 43 -109 50 -120 14 -19 14 -19 15 0 3 57 -7 96 -47 189 -24 57 -47 118
-50 137 l-7 34 21 -19 c22 -19 110 -161 151 -244 20 -39 108 -247 133 -315 5
-15 7 -34 4 -43 -5 -12 -15 -10 -62 15 -57 30 -57 30 -81 11 -136 -107 -750
20 -1044 215 -38 26 -81 62 -95 81 l-26 34 35 82 c20 46 73 180 118 298 99
260 171 415 244 525 86 130 194 217 302 245 67 17 181 4 283 -32z"/>
<path d="M11686 11238 c-3 -13 -14 -149 -26 -303 -50 -650 -103 -928 -244
-1287 -75 -189 -61 -197 40 -20 36 64 80 139 96 166 98 165 136 439 145 1059
5 366 3 454 -11 385z"/>
<path d="M12630 10114 c-47 -7 -146 -29 -220 -48 -178 -47 -618 -180 -627
-191 -5 -4 46 -5 112 -2 127 6 260 33 431 86 123 38 452 155 461 164 10 10
-62 6 -157 -9z"/>
<path d="M5906 10015 c-9 -24 -7 -67 3 -84 12 -19 25 63 13 85 -8 15 -9 15
-16 -1z"/>
<path d="M10308 6803 c-7 -47 1 -105 13 -97 11 7 11 105 0 122 -5 9 -10 1 -13
-25z"/>
<path d="M10018 6801 l-33 -30 32 -32 c27 -27 34 -30 47 -19 20 16 21 83 2 99
-12 10 -21 6 -48 -18z"/>
<path d="M11000 3469 c-38 -12 -95 -50 -122 -83 -10 -12 -25 -43 -34 -69 -47
-141 80 -273 300 -312 103 -17 292 -20 365 -4 117 25 151 85 86 152 -39 40
-114 91 -194 132 -28 13 -71 47 -96 74 -85 90 -214 137 -305 110z m217 -168
c102 -52 191 -146 100 -106 -18 7 -63 25 -102 40 -92 35 -155 72 -155 92 0 24
86 10 157 -26z m-102 -82 c76 -31 185 -95 185 -109 0 -15 -101 -33 -148 -26
-60 8 -126 40 -168 83 -34 34 -45 77 -21 86 21 9 79 -4 152 -34z"/>
<path d="M6717 1876 c-10 -25 -9 -84 2 -90 13 -8 23 57 13 84 -8 20 -9 21 -15
6z"/>
<path d="M6756 1591 c-3 -27 -1 -93 5 -147 9 -85 17 -133 46 -261 9 -41 20
-24 27 41 4 43 0 106 -14 197 -30 207 -52 263 -64 170z"/>
<path d="M6866 1054 c-9 -35 3 -92 15 -73 11 18 12 86 0 93 -5 3 -12 -6 -15
-20z"/>
</g>
</svg>
