<?xml version="1.0" encoding="utf-8"?>
<!-- Generator: Adobe Illustrator 16.0.0, SVG Export Plug-In . SVG Version: 6.00 Build 0)  -->
<!DOCTYPE svg PUBLIC "-//W3C//DTD SVG 1.1//EN" "http://www.w3.org/Graphics/SVG/1.1/DTD/svg11.dtd">
<svg version="1.1" id="Layer_1" xmlns="http://www.w3.org/2000/svg" xmlns:xlink="http://www.w3.org/1999/xlink" x="0px" y="0px"
	 width="512px" height="512px" viewBox="0 0 512 512" enable-background="new 0 0 512 512" xml:space="preserve">
<g>
	<g>
		<path fill="#FFFFFF" d="M337.632,481.554c-2.074-4.124-7.097-5.785-11.222-3.712c-23.008,11.574-46.697,17.442-70.409,17.442
			c-27.972,0-55.718-8.1-82.469-24.072c-23.325-13.927-45.722-34.017-65.05-58.294l18.809-18.809c3.264-3.265,3.264-8.557,0-11.819
			c-3.264-3.265-8.556-3.265-11.819,0l-17.123,17.123C62.596,348.908,41.48,286.84,41.48,231.236
			c0-37.485,9.808-74.374,28.363-106.681c2.769-4.821,5.745-9.512,8.875-14.094l15.526,15.526c1.631,1.631,3.771,2.448,5.91,2.448
			c2.138,0,4.278-0.817,5.91-2.448c3.264-3.264,3.264-8.556,0-11.82l-17.29-17.291c15.593-19.371,34.502-36.02,55.817-49
			c3.943-2.4,5.192-7.543,2.792-11.486c-2.401-3.943-7.543-5.193-11.486-2.792c-33.29,20.273-61.142,48.846-80.547,82.63
			c-20.009,34.837-30.584,74.606-30.584,115.007C24.765,358.406,127.91,512,256.001,512c26.345,0,52.56-6.468,77.92-19.224
			C338.045,490.702,339.706,485.677,337.632,481.554z"/>
	</g>
</g>
<g>
	<g>
		<path fill="#FFFFFF" d="M256.001,0c-30.387,0-59.929,5.805-87.804,17.255c-4.27,1.754-6.31,6.637-4.556,10.906
			c1.754,4.27,6.637,6.309,10.907,4.556c25.851-10.618,53.254-16.002,81.453-16.002c67.498,0,127.803,31.344,167.155,80.232
			l-17.218,17.218c-3.265,3.264-3.265,8.556,0,11.82c1.631,1.631,3.771,2.448,5.909,2.448s4.278-0.817,5.91-2.448l15.475-15.474
			c23.516,34.415,37.289,75.989,37.289,120.725c0,40.636-11.498,85.866-32.377,127.356c-7.218,14.344-15.463,28.031-24.513,40.799
			l-17.1-17.1c-3.265-3.264-8.557-3.264-11.82,0s-3.264,8.557,0,11.818l18.779,18.779c-15.022,18.869-31.819,35.248-49.554,48.112
			c-3.737,2.71-4.569,7.937-1.859,11.673c1.635,2.254,4.186,3.451,6.772,3.451c1.701,0,3.418-0.518,4.9-1.592
			c35.815-25.977,66.703-63.471,89.326-108.426c22.029-43.777,34.161-91.674,34.161-134.87C487.237,103.732,383.505,0,256.001,0z"/>
	</g>
</g>
<g>
	<g>
		<path fill="#FFFFFF" d="M171.374,157.03c-36.95,0-67.009,23.797-67.009,53.045s30.061,53.045,67.009,53.045
			c36.95,0,67.011-23.797,67.011-53.045S208.324,157.03,171.374,157.03z M171.374,246.404c-27.733,0-50.294-16.297-50.294-36.329
			c0-20.032,22.562-36.329,50.294-36.329c27.733,0,50.295,16.297,50.295,36.329C221.668,230.107,199.106,246.404,171.374,246.404z"
			/>
	</g>
</g>
<g>
	<g>
		<path fill="#FFFFFF" d="M340.627,157.03c-36.95,0-67.011,23.797-67.011,53.045s30.062,53.045,67.011,53.045
			c36.95,0,67.009-23.797,67.009-53.045S377.576,157.03,340.627,157.03z M340.627,246.404c-27.733,0-50.295-16.297-50.295-36.329
			c0-20.032,22.562-36.329,50.295-36.329c27.733,0,50.294,16.297,50.294,36.329C390.921,230.107,368.359,246.404,340.627,246.404z"
			/>
	</g>
</g>
<g>
	<g>
		<path fill="#FFFFFF" d="M256.561,335.555c-49.348,0-86.562,18.002-86.562,41.873s37.213,41.873,86.562,41.873
			c49.347,0,86.56-18.002,86.56-41.873S305.907,335.555,256.561,335.555z M256.561,402.586c-42.638,0-69.847-14.9-69.847-25.156
			c0-10.258,27.209-25.158,69.847-25.158c42.637,0,69.844,14.901,69.844,25.158C326.404,387.686,299.195,402.586,256.561,402.586z"
			/>
	</g>
</g>
</svg>
