<?xml version="1.0" encoding="utf-8"?>
<!-- Generator: Adobe Illustrator 16.0.0, SVG Export Plug-In . SVG Version: 6.00 Build 0)  -->
<!DOCTYPE svg PUBLIC "-//W3C//DTD SVG 1.1//EN" "http://www.w3.org/Graphics/SVG/1.1/DTD/svg11.dtd">
<svg version="1.1" id="Layer_1" xmlns="http://www.w3.org/2000/svg" xmlns:xlink="http://www.w3.org/1999/xlink" x="0px" y="0px"
	 width="512px" height="512px" viewBox="0 0 512 512" enable-background="new 0 0 512 512" xml:space="preserve">
<g>
	<g>
		<path fill="#FFFFFF" d="M387.496,235.271c-4.36-0.746-8.508,2.184-9.257,6.547l-12.46,72.685
			c-0.747,4.364,2.184,8.508,6.547,9.257c0.459,0.078,0.914,0.115,1.364,0.115c3.833,0,7.223-2.758,7.893-6.662l12.46-72.685
			C394.791,240.165,391.859,236.021,387.496,235.271z"/>
	</g>
</g>
<g>
	<g>
		<path fill="#FFFFFF" d="M408.544,120.207l-51.582-17.856c-4.184-1.447-8.75,0.771-10.197,4.953
			c-1.447,4.183,0.771,8.748,4.953,10.196l45.152,15.632l-6.905,40.278c-0.747,4.364,2.186,8.508,6.547,9.257
			c0.459,0.078,0.914,0.115,1.364,0.115c3.833,0,7.223-2.758,7.895-6.662l8.054-46.983
			C414.486,125.269,412.252,121.49,408.544,120.207z"/>
	</g>
</g>
<g>
	<g>
		<path fill="#FFFFFF" d="M335.578,94.948L301.37,83.107c-4.187-1.448-8.75,0.77-10.197,4.953
			c-1.448,4.184,0.771,8.749,4.953,10.197l34.208,11.841c0.869,0.3,1.753,0.444,2.622,0.444c3.322,0,6.428-2.08,7.575-5.397
			C341.98,100.962,339.762,96.395,335.578,94.948z"/>
	</g>
</g>
<g>
	<g>
		<path fill="#FFFFFF" d="M444.747,98.805L258.62,34.376c-1.697-0.589-3.546-0.589-5.244,0L67.25,98.805
			c-3.708,1.283-5.942,5.062-5.278,8.93l44.449,259.289c0.361,2.108,1.551,3.984,3.304,5.213l141.676,99.174
			c1.38,0.965,2.989,1.448,4.597,1.448c1.609,0,3.217-0.483,4.598-1.448l141.679-99.174c1.754-1.228,2.941-3.104,3.305-5.213
			l44.449-259.289C450.69,103.867,448.456,100.087,444.747,98.805z M390.341,361.018l-134.342,94.037l-134.341-94.037L78.923,111.73
			l177.076-61.296l177.075,61.296L390.341,361.018z"/>
	</g>
</g>
<g>
	<g>
		<path fill="#FFFFFF" d="M480.951,77.402l-222.33-76.96c-1.7-0.589-3.546-0.589-5.244,0l-222.33,76.96
			c-3.708,1.283-5.943,5.061-5.279,8.93l51.307,299.29c0.361,2.108,1.551,3.985,3.304,5.213l171.023,119.716
			c1.38,0.965,2.989,1.448,4.597,1.448c1.608,0,3.217-0.483,4.597-1.448L431.62,390.835c1.754-1.228,2.941-3.104,3.305-5.213
			l51.309-299.29C486.894,82.463,484.66,78.685,480.951,77.402z M419.686,379.617L255.999,494.198L92.313,379.617L42.72,90.328
			L255.999,16.5l213.278,73.827L419.686,379.617z"/>
	</g>
</g>
<rect x="247.5" y="45.5" fill="#FFFFFF" width="16" height="417"/>
<path fill="#FFFFFF" d="M315.853,231.5c0,4.418-3.582,8-8,8H99.5c-4.418,0-8-3.582-8-8l0,0c0-4.418,3.582-8,8-8h208.353
	C312.271,223.5,315.853,227.082,315.853,231.5L315.853,231.5z"/>
</svg>
